<?xml version="1.0" encoding="UTF-8" standalone="no"?>
<!-- Generator: Adobe Illustrator 18.0.0, SVG Export Plug-In . SVG Version: 6.00 Build 0)  -->

<svg
   xmlns:dc="http://purl.org/dc/elements/1.1/"
   xmlns:cc="http://creativecommons.org/ns#"
   xmlns:rdf="http://www.w3.org/1999/02/22-rdf-syntax-ns#"
   xmlns:svg="http://www.w3.org/2000/svg"
   xmlns="http://www.w3.org/2000/svg"
   xmlns:sodipodi="http://sodipodi.sourceforge.net/DTD/sodipodi-0.dtd"
   xmlns:inkscape="http://www.inkscape.org/namespaces/inkscape"
   version="1.1"
   id="Capa_1"
   x="0px"
   y="0px"
   viewBox="0 0 250 145"
   xml:space="preserve"
   sodipodi:docname="bike.svg"
   inkscape:version="0.92.4 (5da689c313, 2019-01-14)"
   width="250"
   height="145"><metadata
   id="metadata55"><rdf:RDF><cc:Work
       rdf:about=""><dc:format>image/svg+xml</dc:format><dc:type
         rdf:resource="http://purl.org/dc/dcmitype/StillImage" /><dc:title /></cc:Work></rdf:RDF></metadata><defs
   id="defs53" /><sodipodi:namedview
   pagecolor="#ffffff"
   bordercolor="#666666"
   borderopacity="1"
   objecttolerance="10"
   gridtolerance="10"
   guidetolerance="10"
   inkscape:pageopacity="0"
   inkscape:pageshadow="2"
   inkscape:window-width="1366"
   inkscape:window-height="705"
   id="namedview51"
   showgrid="false"
   inkscape:zoom="1"
   inkscape:cx="-190.52966"
   inkscape:cy="45"
   inkscape:window-x="-8"
   inkscape:window-y="-8"
   inkscape:window-maximized="1"
   inkscape:current-layer="Capa_1"
   showguides="false"
   showborder="false" />
<g
   id="g18"
   transform="matrix(0.27703477,0,0,0.27236039,59.817149,3.755118)"
   style="fill:#000000;fill-opacity:1">
	<path
   d="m 452.032,51.938 h -52.54 v 21.783 c 0,2.725 -2.206,4.939 -4.935,4.939 H 383.12 c -2.73,0 -4.938,-2.215 -4.938,-4.939 V 51.938 h -52.537 c -3.94,0 -7.137,3.195 -7.137,7.135 v 112.113 c 0,3.943 3.197,7.135 7.137,7.135 h 126.387 c 3.939,0 7.133,-3.191 7.133,-7.135 V 59.072 c 0,-3.939 -3.194,-7.134 -7.133,-7.134 z"
   id="path2"
   inkscape:connector-curvature="0"
   style="fill:#000000;fill-opacity:1" />
	<g
   id="g16"
   style="fill:#000000;fill-opacity:1">
		<g
   id="g12"
   style="fill:#000000;fill-opacity:1">
			<g
   id="g6"
   style="fill:#000000;fill-opacity:1">
				<path
   d="m 378.853,438.063 c -31.914,0 -57.879,-25.963 -57.879,-57.883 0,-31.92 25.965,-57.885 57.879,-57.885 31.922,0 57.889,25.965 57.889,57.885 0,31.92 -25.968,57.883 -57.889,57.883 z m 0,-86.598 c -15.83,0 -28.715,12.883 -28.715,28.715 0,15.83 12.885,28.717 28.715,28.717 15.835,0 28.717,-12.887 28.717,-28.717 -10e-4,-15.832 -12.882,-28.715 -28.717,-28.715 z"
   id="path4"
   inkscape:connector-curvature="0"
   style="fill:#000000;fill-opacity:1" />
			</g>
			<g
   id="g10"
   style="fill:#000000;fill-opacity:1">
				<path
   d="M 57.883,438.063 C 25.968,438.063 0,412.1 0,380.18 c 0,-31.92 25.968,-57.885 57.883,-57.885 31.916,0 57.883,25.965 57.883,57.885 0,31.92 -25.967,57.883 -57.883,57.883 z m 0,-86.598 c -15.834,0 -28.716,12.883 -28.716,28.715 0,15.83 12.882,28.717 28.716,28.717 15.835,0 28.716,-12.887 28.716,-28.717 0,-15.832 -12.881,-28.715 -28.716,-28.715 z"
   id="path8"
   inkscape:connector-curvature="0"
   style="fill:#000000;fill-opacity:1" />
			</g>
		</g>
		<path
   d="m 406.497,266.9 v -15.863 h 40.348 c 9.13,0 16.533,-7.396 16.533,-16.525 v -11.766 c 0,-9.125 -7.403,-16.525 -16.533,-16.525 H 244.62 c -9.129,0 -16.532,7.4 -16.532,16.525 v 11.941 c 0,9.127 7.403,16.527 16.532,16.527 h 22.359 v 63.521 H 154.954 c -8.207,-12.799 -18.968,-23.807 -31.559,-32.313 L 167.461,123.5 h 40.726 c 9.129,0 16.527,-7.404 16.527,-16.531 0,-9.125 -7.398,-16.525 -16.527,-16.525 0,0 -42.848,0 -57.888,0 -2.058,0 -5.645,0.863 -7.403,1.73 -2.548,1.27 -4.773,3.188 -6.397,5.627 L 19.228,273.613 c -3.494,5.152 -6.072,11.623 -4.143,17.307 2.996,8.832 13.126,11.992 23.503,8.914 7.882,-2.336 14.424,-3.359 22.742,-3.359 43.058,0 78.088,35.031 78.088,78.09 0,9.129 7.396,16.531 16.525,16.531 H 284.24 c 9.129,0 16.531,-7.402 16.531,-16.531 0,-43.059 35.025,-78.09 78.082,-78.09 43.057,0 78.09,35.031 78.09,78.09 0,9.129 7.404,16.531 16.527,16.531 9.133,0 16.53,-7.402 16.53,-16.531 0,-51.747 -35.55,-95.346 -83.503,-107.665 z"
   id="path14"
   inkscape:connector-curvature="0"
   style="fill:#000000;fill-opacity:1" />
	</g>
</g>
<g
   id="g20"
   transform="translate(0,-345)">
</g>
<g
   id="g22"
   transform="translate(0,-345)">
</g>
<g
   id="g24"
   transform="translate(0,-345)">
</g>
<g
   id="g26"
   transform="translate(0,-345)">
</g>
<g
   id="g28"
   transform="translate(0,-345)">
</g>
<g
   id="g30"
   transform="translate(0,-345)">
</g>
<g
   id="g32"
   transform="translate(0,-345)">
</g>
<g
   id="g34"
   transform="translate(0,-345)">
</g>
<g
   id="g36"
   transform="translate(0,-345)">
</g>
<g
   id="g38"
   transform="translate(0,-345)">
</g>
<g
   id="g40"
   transform="translate(0,-345)">
</g>
<g
   id="g42"
   transform="translate(0,-345)">
</g>
<g
   id="g44"
   transform="translate(0,-345)">
</g>
<g
   id="g46"
   transform="translate(0,-345)">
</g>
<g
   id="g48"
   transform="translate(0,-345)">
</g>
</svg>