<?xml version="1.0" encoding="UTF-8" standalone="no"?>
<!-- Generator: Adobe Illustrator 19.0.0, SVG Export Plug-In . SVG Version: 6.00 Build 0)  -->

<svg
   xmlns:dc="http://purl.org/dc/elements/1.1/"
   xmlns:cc="http://creativecommons.org/ns#"
   xmlns:rdf="http://www.w3.org/1999/02/22-rdf-syntax-ns#"
   xmlns:svg="http://www.w3.org/2000/svg"
   xmlns="http://www.w3.org/2000/svg"
   xmlns:sodipodi="http://sodipodi.sourceforge.net/DTD/sodipodi-0.dtd"
   xmlns:inkscape="http://www.inkscape.org/namespaces/inkscape"
   version="1.1"
   id="Layer_1"
   x="0px"
   y="0px"
   viewBox="0 0 300 120"
   xml:space="preserve"
   sodipodi:docname="lorry.svg"
   width="300"
   height="120"
   inkscape:version="0.92.4 (5da689c313, 2019-01-14)"><metadata
   id="metadata55"><rdf:RDF><cc:Work
       rdf:about=""><dc:format>image/svg+xml</dc:format><dc:type
         rdf:resource="http://purl.org/dc/dcmitype/StillImage" /><dc:title></dc:title></cc:Work></rdf:RDF></metadata><defs
   id="defs53" /><sodipodi:namedview
   pagecolor="#ffffff"
   bordercolor="#666666"
   borderopacity="1"
   objecttolerance="10"
   gridtolerance="10"
   guidetolerance="10"
   inkscape:pageopacity="0"
   inkscape:pageshadow="2"
   inkscape:window-width="1366"
   inkscape:window-height="705"
   id="namedview51"
   showgrid="false"
   inkscape:zoom="0.4609375"
   inkscape:cx="256"
   inkscape:cy="256"
   inkscape:window-x="-8"
   inkscape:window-y="-8"
   inkscape:window-maximized="1"
   inkscape:current-layer="Layer_1" />

<g
   id="g12"
   transform="translate(20,-264)">
	<g
   id="g10">
		
	</g>
</g>
<g
   id="g65"
   transform="matrix(0.42206388,0,0,0.42206388,36.42729,64.098366)"><g
     transform="translate(20,-254)"
     id="g6">
	<g
   id="g4">
		<path
   inkscape:connector-curvature="0"
   id="path2"
   d="m 503.467,132.267 h -358.4 c -4.719,0 -8.533,4.412 -8.533,9.847 v 109.619 c 0,4.71 3.823,8.533 8.533,8.533 h 358.4 c 4.71,0 8.533,-3.823 8.533,-8.533 V 142.114 c 0,-5.436 -3.814,-9.847 -8.533,-9.847 z" />
	</g>
</g><path
     inkscape:connector-curvature="0"
     id="path8"
     d="M 503.467,277.333 H 264.533 c -4.71,0 -8.533,3.823 -8.533,8.533 v 50.56 c -0.179,2.074 0.393,4.164 1.664,5.862 1.604,2.15 4.139,3.422 6.835,3.422 h 0.009 l 25.634,-0.026 c 0.043,18.782 15.326,34.048 34.125,34.048 18.825,0 34.133,-15.309 34.133,-34.133 h 51.2 c 0,18.825 15.309,34.133 34.133,34.133 18.825,0 34.133,-15.309 34.133,-34.133 h 25.6 c 4.71,0 8.533,-3.823 8.533,-8.533 v -51.2 c 10e-4,-4.71 -3.822,-8.533 -8.532,-8.533 z m -179.2,85.334 c -9.412,0 -17.067,-7.654 -17.067,-17.067 0,-9.412 7.654,-17.067 17.067,-17.067 9.412,0 17.067,7.654 17.067,17.067 -10e-4,9.412 -7.655,17.067 -17.067,17.067 z m 119.466,0 c -9.412,0 -17.067,-7.654 -17.067,-17.067 0,-9.412 7.654,-17.067 17.067,-17.067 9.412,0 17.067,7.654 17.067,17.067 0,9.412 -7.654,17.067 -17.067,17.067 z"
     transform="translate(20,-264)" /><g
     transform="translate(22,-262)"
     id="g18">
	<g
   id="g16">
		<path
   inkscape:connector-curvature="0"
   id="path14"
   d="M 230.4,277.333 H 128 c -4.71,0 -8.533,-3.823 -8.533,-8.533 v -85.333 c 0,-4.71 -3.823,-8.533 -8.533,-8.533 H 42.667 c -3.49,0 -6.63,2.125 -7.927,5.367 L 0.614,265.617 C 0.41,266.692 0.205,267.733 0,268.8 v 85.333 c 0,4.71 3.823,8.533 8.533,8.533 h 30.345 c 5.922,10.155 16.811,17.067 29.389,17.067 18.825,0 34.133,-15.309 34.133,-34.133 h 34.133 c 0,18.825 15.309,34.133 34.133,34.133 18.824,0 34.134,-15.308 34.134,-34.133 h 25.6 c 4.71,0 8.533,-3.823 8.533,-8.533 v -51.2 c 0,-4.711 -3.823,-8.534 -8.533,-8.534 z M 27.563,260.267 c -3.055,0 -5.12,-3.106 -3.934,-5.922 l 17.946,-42.667 c 0.657,-1.579 2.21,-2.611 3.925,-2.611 h 27.034 c 2.355,0 4.267,1.911 4.267,4.267 V 256 c 0,2.355 -1.911,4.267 -4.267,4.267 z m 40.704,102.4 c -9.412,0 -17.067,-7.654 -17.067,-17.067 0,-9.412 7.654,-17.067 17.067,-17.067 9.412,0 17.067,7.654 17.067,17.067 -0.001,9.412 -7.655,17.067 -17.067,17.067 z m 102.4,0 c -9.412,0 -17.067,-7.654 -17.067,-17.067 0,-9.412 7.654,-17.067 17.067,-17.067 9.412,0 17.067,7.654 17.067,17.067 -0.001,9.412 -7.655,17.067 -17.067,17.067 z" />
	</g>
</g></g>
<g
   id="g20"
   transform="translate(0,-392)">
</g>
<g
   id="g22"
   transform="translate(0,-392)">
</g>
<g
   id="g24"
   transform="translate(0,-392)">
</g>
<g
   id="g26"
   transform="translate(0,-392)">
</g>
<g
   id="g28"
   transform="translate(0,-392)">
</g>
<g
   id="g30"
   transform="translate(0,-392)">
</g>
<g
   id="g32"
   transform="translate(0,-392)">
</g>
<g
   id="g34"
   transform="translate(0,-392)">
</g>
<g
   id="g36"
   transform="translate(0,-392)">
</g>
<g
   id="g38"
   transform="translate(0,-392)">
</g>
<g
   id="g40"
   transform="translate(0,-392)">
</g>
<g
   id="g42"
   transform="translate(0,-392)">
</g>
<g
   id="g44"
   transform="translate(0,-392)">
</g>
<g
   id="g46"
   transform="translate(0,-392)">
</g>
<g
   id="g48"
   transform="translate(0,-392)">
</g>
</svg>