<?xml version="1.0" encoding="UTF-8" standalone="no"?>
<svg
   xmlns:dc="http://purl.org/dc/elements/1.1/"
   xmlns:cc="http://creativecommons.org/ns#"
   xmlns:rdf="http://www.w3.org/1999/02/22-rdf-syntax-ns#"
   xmlns:svg="http://www.w3.org/2000/svg"
   xmlns="http://www.w3.org/2000/svg"
   xmlns:sodipodi="http://sodipodi.sourceforge.net/DTD/sodipodi-0.dtd"
   xmlns:inkscape="http://www.inkscape.org/namespaces/inkscape"
   height="512pt"
   viewBox="0 -3 512.00002 512"
   width="512pt"
   version="1.1"
   id="svg34"
   sodipodi:docname="payment.svg"
   inkscape:version="0.92.4 (5da689c313, 2019-01-14)">
  <metadata
     id="metadata40">
    <rdf:RDF>
      <cc:Work
         rdf:about="">
        <dc:format>image/svg+xml</dc:format>
        <dc:type
           rdf:resource="http://purl.org/dc/dcmitype/StillImage" />
      </cc:Work>
    </rdf:RDF>
  </metadata>
  <defs
     id="defs38" />
  <sodipodi:namedview
     pagecolor="#ffffff"
     bordercolor="#666666"
     borderopacity="1"
     objecttolerance="10"
     gridtolerance="10"
     guidetolerance="10"
     inkscape:pageopacity="0"
     inkscape:pageshadow="2"
     inkscape:window-width="1366"
     inkscape:window-height="705"
     id="namedview36"
     showgrid="false"
     inkscape:zoom="0.34570313"
     inkscape:cx="329.76271"
     inkscape:cy="341.33333"
     inkscape:window-x="-8"
     inkscape:window-y="-8"
     inkscape:window-maximized="1"
     inkscape:current-layer="svg34" />
  <path
     d="m278.546875 499.226562h-234.917969c-19.898437 0-36.027344-16.128906-36.027344-36.023437v-419.574219c0-19.894531 16.128907-36.023437 36.027344-36.023437h234.917969c19.894531 0 36.023437 16.128906 36.023437 36.023437v419.574219c0 19.894531-16.128906 36.023437-36.023437 36.023437zm0 0"
     fill="#3c3f4d"
     id="path2" />
  <path
     d="m192.753906 467.558594c0 17.488281-14.179687 31.667968-31.667968 31.667968-17.488282 0-31.667969-14.179687-31.667969-31.667968 0-17.488282 14.179687-31.667969 31.667969-31.667969 17.488281 0 31.667968 14.179687 31.667968 31.667969zm0 0"
     fill="#2d303b"
     id="path4" />
  <path
     d="m266.386719 70.625h-210.601563c-10.035156 0-18.167968 8.136719-18.167968 18.171875v328.921875c0 10.035156 8.132812 18.171875 18.167968 18.171875h210.601563c10.039062 0 18.171875-8.136719 18.171875-18.171875v-328.921875c0-10.035156-8.136719-18.171875-18.171875-18.171875zm0 0"
     fill="#c4e2f2"
     id="path6" />
  <path
     d="m284.558594 88.796875v328.925781c0 10.035156-8.140625 18.167969-18.167969 18.167969h-25.699219c10.035156 0 18.175782-8.132813 18.175782-18.167969v-328.925781c0-10.039063-8.140626-18.171875-18.175782-18.171875h25.699219c10.027344 0 18.167969 8.132812 18.167969 18.171875zm0 0"
     fill="#83b2c6"
     id="path8" />
  <path
     d="m284.554688 129.054688v278.824218h-147.46875c-26.542969 0-48.074219-21.527344-48.074219-48.089844v-182.644531c0-26.554687 21.53125-48.089843 48.074219-48.089843zm0 0"
     fill="#ff491f"
     id="path10"
     style="fill:#000000;fill-opacity:1" />
  <path
     d="m266.011719 129.054688h18.542969v278.824218h-18.542969zm0 0"
     fill="#ed3618"
     id="path12" />
  <path
     d="m284.554688 191.8125h-195.542969v58.308594h195.542969"
     fill="#2d303b"
     id="path14" />
  <path
     d="m470.675781 170.695312h-156.105469v195.542969h156.105469c18.625 0 33.71875-15.09375 33.71875-33.71875v-128.105469c0-18.621093-15.09375-33.71875-33.71875-33.71875zm0 0"
     fill="#ff491f"
     id="path16"
     style="fill:#000000;fill-opacity:1" />
  <path
     d="m314.570312 214.707031h189.824219v40.894531h-189.824219zm0 0"
     fill="#2d303b"
     id="path18" />
  <path
     d="m477.878906 60.855469h-80.59375v-27.914063l-53.765625 53.765625 53.765625 53.765625v-27.914062h80.59375zm0 0"
     fill="#ff8e1d"
     id="path20" />
  <path
     d="m187.953125 33.628906h-53.734375c-4.199219 0-7.601562 3.40625-7.601562 7.605469s3.402343 7.605469 7.601562 7.605469h53.734375c4.203125 0 7.605469-3.40625 7.605469-7.605469s-3.40625-7.605469-7.605469-7.605469zm0 0"
     id="path22" />
  <path
     d="M 470.67578,163.08984 H 322.17187 V 43.628906 C 322.17187,19.570312 302.60156,0 278.54687,0 H 43.628906 C 19.570312,0 0,19.570312 0,43.628906 V 463.20312 c 0,24.05469 19.570312,43.62891 43.628906,43.62891 H 278.54687 c 24.05469,0 43.625,-19.57422 43.625,-43.62891 v -89.35937 h 94.58204 c 4.20312,0 7.60546,-3.40625 7.60546,-7.60547 0,-4.19922 -3.40234,-7.60547 -7.60546,-7.60547 h -94.58204 v -95.42578 h 174.6211 v 69.3125 c 0,14.39844 -11.71875,26.11328 -26.11719,26.11328 h -28.57031 c -4.20313,0 -7.60547,3.40625 -7.60547,7.60547 0,4.19922 3.40234,7.60156 7.60547,7.60156 h 28.57031 C 493.46094,373.83984 512,355.30469 512,332.51953 V 204.41406 c 0,-22.78515 -18.53906,-41.32422 -41.32422,-41.32422 z m 0,15.21094 c 14.39844,0 26.11719,11.71484 26.11719,26.11328 v 2.6875 H 322.17187 V 178.30078 Z M 137.01953,467.55859 c 0,-13.26953 10.79688,-24.0625 24.06641,-24.0625 13.26953,0 24.0625,10.79297 24.0625,24.0625 0,13.26953 -10.79297,24.06641 -24.0625,24.06641 -13.26953,0 -24.06641,-10.79688 -24.06641,-24.06641 z m 169.94531,-4.35547 c 0,15.67188 -12.75,28.42188 -28.41797,28.42188 h -86.45703 c 5.17578,-6.65625 8.26953,-15.00391 8.26953,-24.06641 0,-9.0625 -3.09375,-17.41015 -8.26953,-24.0625 h 74.29688 c 14.21484,0 25.77734,-11.5664 25.77734,-25.77734 V 88.796875 c 0,-14.210937 -11.5625,-25.773437 -25.77734,-25.773437 H 55.785156 c -14.210937,0 -25.777344,11.5625 -25.777344,25.773437 v 37.957035 c 0,4.19921 3.40625,7.60156 7.605469,7.60156 4.199219,0 7.605469,-3.40235 7.605469,-7.60156 V 88.796875 c 0,-5.828125 4.738281,-10.566406 10.566406,-10.566406 H 266.38672 c 5.82812,0 10.57031,4.738281 10.57031,10.566406 V 121.45313 H 137.08984 c -30.70312,0 -55.68359,24.98437 -55.68359,55.6914 v 182.64453 c 0,30.71094 24.98047,55.69141 55.68359,55.69141 h 139.86719 v 2.23828 c 0,5.82812 -4.74219,10.56641 -10.57031,10.56641 H 55.785156 c -5.828125,0 -10.566406,-4.73829 -10.566406,-10.56641 V 152.10156 c 0,-4.19922 -3.40625,-7.60547 -7.605469,-7.60547 -4.199219,0 -7.605469,3.40625 -7.605469,7.60547 v 265.61719 c 0,14.21484 11.566407,25.77734 25.777344,25.77734 h 74.296874 c -5.17578,6.65235 -8.26953,15 -8.26953,24.0625 0,9.0625 3.09375,17.41016 8.26953,24.06641 H 43.628906 c -15.671875,0 -28.421875,-12.75 -28.421875,-28.42188 V 43.628906 c 0,-15.671875 12.75,-28.421875 28.421875,-28.421875 H 278.54687 c 15.66797,0 28.41797,12.75 28.41797,28.421875 z M 276.95703,242.51953 H 96.617188 V 199.41797 H 276.95703 Z m 0,-58.30859 H 96.617188 v -7.06641 c 0,-22.32422 18.152342,-40.48437 40.472652,-40.48437 h 139.86719 v 25.22119 z M 96.617188,257.72656 H 276.95703 v 36.14063 h -14.39844 c -4.20312,0 -7.60547,3.40234 -7.60547,7.60156 0,4.19922 3.40235,7.60547 7.60547,7.60547 h 14.39844 v 91.19922 H 137.08984 c -22.32031,0 -40.472652,-18.16016 -40.472652,-40.48047 z M 322.17187,248 v -25.69141 h 174.6211 V 248 Z"
     id="path24"
     inkscape:connector-curvature="0"
     sodipodi:nodetypes="scsssssssscssscccssssssssssscccsssssssscscssssssssssssscsssscssssssssscscssssssscccccccssccccccsssccsscccccc" />
  <path
     d="m336.382812 284.011719c-4.203124 0-7.605468 3.402343-7.605468 7.601562s3.402344 7.605469 7.605468 7.605469h46.300782c4.199218 0 7.601562-3.40625 7.601562-7.605469s-3.402344-7.601562-7.601562-7.601562zm0 0"
     id="path26" />
  <path
     d="m462.171875 291.613281c0-4.199219-3.40625-7.601562-7.605469-7.601562h-46.300781c-4.203125 0-7.605469 3.402343-7.605469 7.601562s3.402344 7.605469 7.605469 7.605469h46.300781c4.199219 0 7.605469-3.40625 7.605469-7.605469zm0 0"
     id="path28" />
  <path
     d="m160.058594 309.074219h66.019531c4.199219 0 7.605469-3.402344 7.605469-7.605469 0-4.199219-3.40625-7.601562-7.605469-7.601562h-66.019531c-4.199219 0-7.601563 3.402343-7.601563 7.601562 0 4.203125 3.402344 7.605469 7.601563 7.605469zm0 0"
     id="path30" />
  <path
     d="m391.90625 145.847656c1.457031 1.457032 3.398438 2.230469 5.378906 2.230469.980469 0 1.96875-.191406 2.910156-.582031 2.839844-1.175782 4.691407-3.949219 4.691407-7.023438v-20.308594h72.992187c4.199219 0 7.605469-3.40625 7.605469-7.605468v-51.703125c0-4.199219-3.40625-7.605469-7.605469-7.605469h-72.992187v-20.308594c0-3.074218-1.851563-5.847656-4.691407-7.023437-2.84375-1.179688-6.113281-.527344-8.289062 1.648437l-53.765625 53.761719c-2.96875 2.972656-2.96875 7.785156 0 10.753906zm-2.226562-94.546875v9.554688c0 4.199219 3.402343 7.601562 7.605468 7.601562h72.992188v36.5h-72.992188c-4.203125 0-7.605468 3.402344-7.605468 7.601563v9.558594l-35.40625-35.410157zm0 0"
     id="path32" />
  <text
     xml:space="preserve"
     style="font-style:normal;font-weight:bold;font-size:28.02099935px;line-height:1.25;font-family:sans-serif;letter-spacing:0px;word-spacing:0px;fill:#ffcc00;fill-opacity:1;stroke:none;stroke-width:0.70052773;-inkscape-font-specification:'sans-serif, Bold';font-stretch:normal;font-variant:normal;text-anchor:start;text-align:start;writing-mode:lr;font-variant-ligatures:normal;font-variant-caps:normal;font-variant-numeric:normal;font-feature-settings:normal;"
     x="341.99377"
     y="226.17941"
     id="text849"
     transform="scale(0.93403693,1.0706215)"><tspan
       sodipodi:role="line"
       id="tspan847"
       x="341.99377"
       y="226.17941"
       style="stroke-width:0.70052773;fill:#ffcc00;-inkscape-font-specification:'sans-serif, Bold';font-family:sans-serif;font-weight:bold;font-style:normal;font-stretch:normal;font-variant:normal;font-size:28.02099935px;text-anchor:start;text-align:start;writing-mode:lr;font-variant-ligatures:normal;font-variant-caps:normal;font-variant-numeric:normal;font-feature-settings:normal;">12345678912</tspan></text>
</svg>
