<?xml version="1.0" encoding="UTF-8" standalone="no"?>
<svg
   xmlns:dc="http://purl.org/dc/elements/1.1/"
   xmlns:cc="http://creativecommons.org/ns#"
   xmlns:rdf="http://www.w3.org/1999/02/22-rdf-syntax-ns#"
   xmlns:svg="http://www.w3.org/2000/svg"
   xmlns="http://www.w3.org/2000/svg"
   xmlns:sodipodi="http://sodipodi.sourceforge.net/DTD/sodipodi-0.dtd"
   xmlns:inkscape="http://www.inkscape.org/namespaces/inkscape"
   height="512pt"
   viewBox="0 -3 512.00002 512"
   width="512pt"
   version="1.1"
   id="svg34"
   sodipodi:docname="payment_confirm.svg"
   inkscape:version="0.92.4 (5da689c313, 2019-01-14)">
  <metadata
     id="metadata40">
    <rdf:RDF>
      <cc:Work
         rdf:about="">
        <dc:format>image/svg+xml</dc:format>
        <dc:type
           rdf:resource="http://purl.org/dc/dcmitype/StillImage" />
        <dc:title></dc:title>
      </cc:Work>
    </rdf:RDF>
  </metadata>
  <defs
     id="defs38" />
  <sodipodi:namedview
     pagecolor="#ffffff"
     bordercolor="#666666"
     borderopacity="1"
     objecttolerance="10"
     gridtolerance="10"
     guidetolerance="10"
     inkscape:pageopacity="0"
     inkscape:pageshadow="2"
     inkscape:window-width="1366"
     inkscape:window-height="705"
     id="namedview36"
     showgrid="false"
     inkscape:zoom="0.34570313"
     inkscape:cx="341.33333"
     inkscape:cy="341.33333"
     inkscape:window-x="-8"
     inkscape:window-y="-8"
     inkscape:window-maximized="1"
     inkscape:current-layer="svg34" />
  <path
     d="m278.546875 499.226562h-234.917969c-19.898437 0-36.027344-16.128906-36.027344-36.023437v-419.574219c0-19.894531 16.128907-36.023437 36.027344-36.023437h234.917969c19.894531 0 36.023437 16.128906 36.023437 36.023437v419.574219c0 19.894531-16.128906 36.023437-36.023437 36.023437zm0 0"
     fill="#3c3f4d"
     id="path2" />
  <path
     d="m192.753906 467.558594c0 17.488281-14.179687 31.667968-31.667968 31.667968-17.488282 0-31.667969-14.179687-31.667969-31.667968 0-17.488282 14.179687-31.667969 31.667969-31.667969 17.488281 0 31.667968 14.179687 31.667968 31.667969zm0 0"
     fill="#2d303b"
     id="path4" />
  <path
     d="m266.386719 70.625h-210.601563c-10.035156 0-18.167968 8.136719-18.167968 18.171875v328.921875c0 10.035156 8.132812 18.171875 18.167968 18.171875h210.601563c10.039062 0 18.171875-8.136719 18.171875-18.171875v-328.921875c0-10.035156-8.136719-18.171875-18.171875-18.171875zm0 0"
     fill="#c4e2f2"
     id="path6"
     style="fill:#6e8000;fill-opacity:1" />
  <path
     d="m284.558594 88.796875v328.925781c0 10.035156-8.140625 18.167969-18.167969 18.167969h-25.699219c10.035156 0 18.175782-8.132813 18.175782-18.167969v-328.925781c0-10.039063-8.140626-18.171875-18.175782-18.171875h25.699219c10.027344 0 18.167969 8.132812 18.167969 18.171875zm0 0"
     fill="#83b2c6"
     id="path8"
     style="fill:#6e8000;fill-opacity:1" />
  <path
     d="m284.554688 129.054688v278.824218h-147.46875c-26.542969 0-48.074219-21.527344-48.074219-48.089844v-182.644531c0-26.554687 21.53125-48.089843 48.074219-48.089843zm0 0"
     fill="#ff491f"
     id="path10"
     style="fill:#6e8000;fill-opacity:1" />
  <path
     d="m266.011719 129.054688h18.542969v278.824218h-18.542969zm0 0"
     fill="#ed3618"
     id="path12"
     style="fill:#6e8000;fill-opacity:1" />
  <path
     d="m284.554688 191.8125h-195.542969v58.308594h195.542969"
     fill="#2d303b"
     id="path14" />
  <path
     d="m470.675781 170.695312h-156.105469v195.542969h156.105469c18.625 0 33.71875-15.09375 33.71875-33.71875v-128.105469c0-18.621093-15.09375-33.71875-33.71875-33.71875zm0 0"
     fill="#ff491f"
     id="path16"
     style="fill:#6e9e00;fill-opacity:1" />
  <path
     d="m314.570312 214.707031h189.824219v40.894531h-189.824219zm0 0"
     fill="#2d303b"
     id="path18" />
  <path
     d="m477.878906 60.855469h-80.59375v-27.914063l-53.765625 53.765625 53.765625 53.765625v-27.914062h80.59375zm0 0"
     fill="#ff8e1d"
     id="path20" />
  <path
     d="m187.953125 33.628906h-53.734375c-4.199219 0-7.601562 3.40625-7.601562 7.605469s3.402343 7.605469 7.601562 7.605469h53.734375c4.203125 0 7.605469-3.40625 7.605469-7.605469s-3.40625-7.605469-7.605469-7.605469zm0 0"
     id="path22" />
  <path
     d="m470.675781 163.089844h-148.503906v-119.460938c0-24.058594-19.570313-43.628906-43.625-43.628906h-234.917969c-24.058594 0-43.628906 19.570312-43.628906 43.628906v419.574219c0 24.054687 19.570312 43.628906 43.628906 43.628906h234.917969c24.054687 0 43.625-19.574219 43.625-43.628906v-89.359375h94.582031c4.203125 0 7.605469-3.40625 7.605469-7.605469s-3.402344-7.605469-7.605469-7.605469h-94.582031v-95.425781h174.621094v69.3125c0 14.398438-11.71875 26.113281-26.117188 26.113281h-28.570312c-4.203125 0-7.605469 3.40625-7.605469 7.605469s3.402344 7.601563 7.605469 7.601563h28.570312c22.785157 0 41.324219-18.535156 41.324219-41.320313v-128.105469c0-22.785156-18.539062-41.324218-41.324219-41.324218zm0 15.210937c14.398438 0 26.117188 11.714844 26.117188 26.113281v2.6875h-174.621094v-28.800781zm-333.65625 289.257813c0-13.269532 10.796875-24.0625 24.066407-24.0625 13.269531 0 24.0625 10.792968 24.0625 24.0625 0 13.269531-10.792969 24.066406-24.0625 24.066406-13.269532 0-24.066407-10.796875-24.066407-24.066406zm169.945313-4.355469c0 15.671875-12.75 28.421875-28.417969 28.421875h-86.457031c5.175781-6.65625 8.269531-15.003906 8.269531-24.066406s-3.09375-17.410156-8.269531-24.0625h74.296875c14.214843 0 25.777343-11.566406 25.777343-25.777344v-328.921875c0-14.210937-11.5625-25.773437-25.777343-25.773437h-210.601563c-14.210937 0-25.777344 11.5625-25.777344 25.773437v37.957031c0 4.199219 3.40625 7.601563 7.605469 7.601563s7.605469-3.402344 7.605469-7.601563v-37.957031c0-5.828125 4.738281-10.566406 10.566406-10.566406h210.601563c5.828125 0 10.570312 4.738281 10.570312 10.566406v32.65625h-139.867187c-30.703125 0-55.683594 24.984375-55.683594 55.691406v182.644531c0 30.710938 24.980469 55.691407 55.683594 55.691407h139.867187v2.238281c0 5.828125-4.742187 10.566406-10.570312 10.566406h-210.601563c-5.828125 0-10.566406-4.738281-10.566406-10.566406v-265.617188c0-4.199218-3.40625-7.605468-7.605469-7.605468s-7.605469 3.40625-7.605469 7.605468v265.617188c0 14.214844 11.566407 25.777344 25.777344 25.777344h74.296875c-5.175781 6.652344-8.269531 15-8.269531 24.0625s3.09375 17.410156 8.269531 24.066406h-86.453125c-15.671875 0-28.421875-12.75-28.421875-28.421875v-419.574219c0-15.671875 12.75-28.421875 28.421875-28.421875h234.917969c15.667969 0 28.417969 12.75 28.417969 28.421875zm-30.007813-220.683594h-180.339843v-43.101562h180.339843zm0-58.308593h-180.339843v-7.066407c0-22.324219 18.152343-40.484375 40.472656-40.484375h139.867187zm-180.339843 73.515624h180.339843v36.140626h-14.398437c-4.203125 0-7.605469 3.402343-7.605469 7.601562s3.402344 7.605469 7.605469 7.605469h14.398437v91.199219h-139.867187c-22.320313 0-40.472656-18.160157-40.472656-40.480469zm225.554687-9.726562v-25.691406h174.621094v25.691406zm0 0"
     id="path24" />
  <path
     d="m336.382812 284.011719c-4.203124 0-7.605468 3.402343-7.605468 7.601562s3.402344 7.605469 7.605468 7.605469h46.300782c4.199218 0 7.601562-3.40625 7.601562-7.605469s-3.402344-7.601562-7.601562-7.601562zm0 0"
     id="path26" />
  <path
     d="m462.171875 291.613281c0-4.199219-3.40625-7.601562-7.605469-7.601562h-46.300781c-4.203125 0-7.605469 3.402343-7.605469 7.601562s3.402344 7.605469 7.605469 7.605469h46.300781c4.199219 0 7.605469-3.40625 7.605469-7.605469zm0 0"
     id="path28" />
  <path
     d="m160.058594 309.074219h66.019531c4.199219 0 7.605469-3.402344 7.605469-7.605469 0-4.199219-3.40625-7.601562-7.605469-7.601562h-66.019531c-4.199219 0-7.601563 3.402343-7.601563 7.601562 0 4.203125 3.402344 7.605469 7.601563 7.605469zm0 0"
     id="path30" />
  <path
     d="m391.90625 145.847656c1.457031 1.457032 3.398438 2.230469 5.378906 2.230469.980469 0 1.96875-.191406 2.910156-.582031 2.839844-1.175782 4.691407-3.949219 4.691407-7.023438v-20.308594h72.992187c4.199219 0 7.605469-3.40625 7.605469-7.605468v-51.703125c0-4.199219-3.40625-7.605469-7.605469-7.605469h-72.992187v-20.308594c0-3.074218-1.851563-5.847656-4.691407-7.023437-2.84375-1.179688-6.113281-.527344-8.289062 1.648437l-53.765625 53.761719c-2.96875 2.972656-2.96875 7.785156 0 10.753906zm-2.226562-94.546875v9.554688c0 4.199219 3.402343 7.601562 7.605468 7.601562h72.992188v36.5h-72.992188c-4.203125 0-7.605468 3.402344-7.605468 7.601563v9.558594l-35.40625-35.410157zm0 0"
     id="path32"
     style="fill:#6e8000;fill-opacity:1" />
</svg>
