<?xml version="1.0" encoding="UTF-8" standalone="no"?>
<svg
   xmlns:dc="http://purl.org/dc/elements/1.1/"
   xmlns:cc="http://creativecommons.org/ns#"
   xmlns:rdf="http://www.w3.org/1999/02/22-rdf-syntax-ns#"
   xmlns:svg="http://www.w3.org/2000/svg"
   xmlns="http://www.w3.org/2000/svg"
   xmlns:sodipodi="http://sodipodi.sourceforge.net/DTD/sodipodi-0.dtd"
   xmlns:inkscape="http://www.inkscape.org/namespaces/inkscape"
   height="150pt"
   viewBox="0 -56 260 150"
   width="260pt"
   version="1.1"
   id="svg88"
   sodipodi:docname="pickup_small.svg"
   inkscape:version="0.92.4 (5da689c313, 2019-01-14)">
  <metadata
     id="metadata94">
    <rdf:RDF>
      <cc:Work
         rdf:about="">
        <dc:format>image/svg+xml</dc:format>
        <dc:type
           rdf:resource="http://purl.org/dc/dcmitype/StillImage" />
        <dc:title />
      </cc:Work>
    </rdf:RDF>
  </metadata>
  <defs
     id="defs92" />
  <sodipodi:namedview
     pagecolor="#ffffff"
     bordercolor="#666666"
     borderopacity="1"
     objecttolerance="10"
     gridtolerance="10"
     guidetolerance="10"
     inkscape:pageopacity="0"
     inkscape:pageshadow="2"
     inkscape:window-width="1366"
     inkscape:window-height="705"
     id="namedview90"
     showgrid="false"
     inkscape:zoom="1"
     inkscape:cx="-1217.2881"
     inkscape:cy="268.75524"
     inkscape:window-x="-8"
     inkscape:window-y="-8"
     inkscape:window-maximized="1"
     inkscape:current-layer="svg88"
     units="mm" />
  <g
     id="alaaru1"
     transform="matrix(0.04464286,0,0,0.02885172,-952.43865,-106.0328)"
     onclick=""
     style="fill:#ff3b00;fill-opacity:1">
    <g
       id="g284"
       transform="translate(123.86441,104.64406)"
       style="fill:#ff3b00;fill-opacity:1">
      <path
         inkscape:connector-curvature="0"
         id="path34"
         d="m 1143.0848,438.74675 h -40 c -4.4258,0 -8,-3.57422 -8,-8 0,-4.42188 3.5742,-8 8,-8 h 40 c 4.4257,0 8,3.57812 8,8 0,4.42578 -3.5743,8 -8,8 z m 0,0"
         transform="translate(-5e-5)"
         style="fill:#ff3b00;fill-opacity:1" />
      <g
         id="g162"
         transform="translate(647.08474,102.50847)"
         style="fill:#ff3b00;fill-opacity:1">
        <path
           id="path40"
           d="M 416.60937,120.23828 H 352 c -4.42578,0 -8,-3.57422 -8,-8 0,-4.42187 3.57422,-8 8,-8 h 64.60937 c 4.42188,0 8,3.57813 8,8 0,4.42578 -3.57812,8 -8,8 z m 0,0"
           inkscape:connector-curvature="0"
           style="fill:#ff3b00;fill-opacity:1" />
        <path
           id="path48"
           d="m 312.07812,184.14453 c -4.42187,0 -8,-3.57812 -8,-8 0,-4.42578 3.57813,-8 8,-8 4.41797,0 8,-3.58594 8,-8 0,-4.42578 3.57813,-8 8,-8 4.42579,0 8,3.57422 8,8 0,13.23047 -10.76562,24 -24,24 z m 0,0"
           inkscape:connector-curvature="0"
           style="fill:#ff3b00;fill-opacity:1" />
        <path
           id="path62"
           d="m 296.07812,48.121094 c -4.42187,0 -8,-3.578125 -8,-8 0,-13.234375 -10.76562,-24 -24,-24 -4.42187,0 -8,-3.578125 -8,-8 0,-4.425782 3.57813,-8 8,-8 22.0586,0 40,17.941406 40,40 0,4.421875 -3.57421,8 -8,8 z m 0,0"
           inkscape:connector-curvature="0"
           style="fill:#ff3b00;fill-opacity:1" />
        <path
           id="path68"
           d="m 72.152344,208.14453 c -4.425782,0 -8,-3.57812 -8,-8 v -23.99219 c 0,-4.42578 3.574218,-8 8,-8 4.421875,0 8,3.57422 8,8 v 23.99219 c 0,4.42188 -3.585938,8 -8,8 z m 0,0"
           inkscape:connector-curvature="0"
           style="fill:#ff3b00;fill-opacity:1" />
        <path
           id="path70"
           d="M 72.152344,208.14453 H 40.015625 c -4.421875,0 -8,-3.57812 -8,-8 0,-4.42578 3.578125,-8 8,-8 h 32.136719 c 4.421875,0 8,3.57422 8,8 0,4.42188 -3.585938,8 -8,8 z m 0,0"
           inkscape:connector-curvature="0"
           style="fill:#ff3b00;fill-opacity:1" />
        <path
           id="path72"
           d="m 264.19141,208.16797 c -4.42188,0 -8,-3.57422 -8,-8 v -24.02344 c 0,-4.42578 3.57812,-8 8,-8 4.42578,0 8,3.57422 8,8 v 24.02344 c 0,4.42578 -3.57422,8 -8,8 z m 0,0"
           inkscape:connector-curvature="0"
           style="fill:#ff3b00;fill-opacity:1" />
        <path
           id="path74"
           d="m 296.07812,208.16797 h -31.8789 c -4.42188,0 -8,-3.57422 -8,-8 0,-4.42578 3.57812,-8 8,-8 h 31.8789 c 4.42579,0 8,3.57422 8,8 0,4.42578 -3.57421,8 -8,8 z m 0,0"
           inkscape:connector-curvature="0"
           style="fill:#ff3b00;fill-opacity:1" />
      </g>
      <g
         id="g144"
         transform="translate(647.08475,102.50847)"
         style="fill:#ff3b00;fill-opacity:1">
        <path
           id="path2"
           d="m 496,288.23828 c -4.42578,0 -8,-3.57422 -8,-8 v -88 c 0,-4.42187 3.57422,-8 8,-8 4.42578,0 8,3.57813 8,8 v 88 c 0,4.41797 -3.57422,8 -8,8 z m 0,0"
           inkscape:connector-curvature="0"
           style="fill:#ff3b00;fill-opacity:1" />
        <path
           id="path4"
           d="m 496.00781,200.23828 c -2.6875,0 -5.3125,-1.35156 -6.82422,-3.80469 l -64,-103.999996 c -2.3125,-3.769532 -1.14453,-8.699219 2.61719,-11.007813 3.77344,-2.328125 8.69531,-1.144531 11.00781,2.613281 l 64,103.999998 c 2.3125,3.76953 1.14453,8.69531 -2.61718,11.00781 -1.3125,0.8086 -2.75,1.19141 -4.1836,1.19141 z m 0,0"
           inkscape:connector-curvature="0"
           style="fill:#ff3b00;fill-opacity:1" />
        <path
           id="path8"
           d="M 432,96.238281 H 296.07812 c -4.42187,0 -8,-3.574219 -8,-8 0,-4.421875 3.57813,-8 8,-8 H 432 c 4.42578,0 8,3.578125 8,8 0,4.425781 -3.57422,8 -8,8 z m 0,0"
           inkscape:connector-curvature="0"
           style="fill:#ff3b00;fill-opacity:1" />
        <path
           id="path20"
           d="M 344,336.23828 H 160 c -4.42578,0 -8,-3.57422 -8,-8 0,-4.42187 3.57422,-8 8,-8 h 184 c 4.42578,0 8,3.57813 8,8 0,4.42578 -3.57422,8 -8,8 z m 0,0"
           inkscape:connector-curvature="0"
           style="fill:#ff3b00;fill-opacity:1" />
        <path
           id="path22"
           d="m 496,336.23828 c -4.42578,0 -8,-3.57422 -8,-8 v -48 c 0,-4.42187 3.57422,-8 8,-8 4.42578,0 8,3.57813 8,8 v 48 c 0,4.41797 -3.57422,8 -8,8 z m 0,0"
           inkscape:connector-curvature="0"
           style="fill:#ff3b00;fill-opacity:1" />
        <path
           id="path76"
           d="m 168.16797,96.222656 c -4.42578,0 -8.03906,-3.574218 -8.03906,-8 0,-4.421875 3.53515,-8 7.94921,-8 h 0.0898 c 4.41797,0 8,3.578125 8,8 0,4.425782 -3.59375,8 -8,8 z m 0,0"
           inkscape:connector-curvature="0"
           style="fill:#ff3b00;fill-opacity:1" />
        <path
           id="path78"
           d="m 232.29687,96.222656 c -4.42578,0 -8.03906,-3.574218 -8.03906,-8 0,-4.421875 3.53516,-8 7.94922,-8 h 0.0898 c 4.41407,0 8,3.578125 8,8 0,4.425782 -3.58593,8 -8,8 z m 0,0"
           inkscape:connector-curvature="0"
           style="fill:#ff3b00;fill-opacity:1" />
        <g
           id="g194"
           style="fill:#ff3b00;fill-opacity:1">
          <path
             id="path14"
             d="m 8,288.23828 c -4.425781,0 -8,-3.57422 -8,-8 v -80 c 0,-4.42187 3.574219,-8 8,-8 4.425781,0 8,3.57813 8,8 v 80 c 0,4.41797 -3.574219,8 -8,8 z m 0,0"
             inkscape:connector-curvature="0"
             style="fill:#ff3b00;fill-opacity:1" />
          <path
             id="path32"
             d="M 48,336.23828 H 8 c -4.425781,0 -8,-3.57422 -8,-8 0,-4.42187 3.574219,-8 8,-8 h 40 c 4.425781,0 8,3.57813 8,8 0,4.42578 -3.574219,8 -8,8 z m 0,0"
             inkscape:connector-curvature="0"
             style="fill:#ff3b00;fill-opacity:1" />
          <path
             d="m 456.00781,184.23828 c -2.6875,0 -5.3125,-1.35156 -6.82422,-3.80469 l -39.39062,-64.01953 c -2.32031,-3.76562 -1.14453,-8.69531 2.61328,-11.00781 3.78516,-2.31641 8.69922,-1.14062 11.00781,2.61719 l 39.39453,64.01562 c 2.32032,3.76953 1.14453,8.69531 -2.61718,11.00781 -1.3125,0.8086 -2.75,1.19141 -4.1836,1.19141 z m 0,0"
             id="path6"
             inkscape:connector-curvature="0"
             style="fill:#ff3b00;fill-opacity:1" />
          <path
             d="m 328,264.23828 c -4.42578,0 -8,-3.57422 -8,-8 V 88.289062 c 0,-4.425781 3.57422,-8 8,-8 4.42578,0 8,3.574219 8,8 V 256.23047 c 0,4.42578 -3.57422,8.00781 -8,8.00781 z m 0,0"
             id="path10"
             inkscape:connector-curvature="0"
             style="fill:#ff3b00;fill-opacity:1" />
          <path
             d="M 456,184.23828 H 352 c -4.42578,0 -8,-3.57422 -8,-8 0,-4.42187 3.57422,-8 8,-8 h 104 c 4.42578,0 8,3.57813 8,8 0,4.42578 -3.57422,8 -8,8 z m 0,0"
             id="path38"
             inkscape:connector-curvature="0"
             style="fill:#ff3b00;fill-opacity:1" />
          <path
             d="m 296.07812,208.16797 c -4.42187,0 -8,-3.57422 -8,-8 V 40.070312 c 0,-4.421874 3.57813,-8 8,-8 4.42579,0 8,3.578126 8,8 V 200.16797 c 0,4.42578 -3.57421,8 -8,8 z m 0,0"
             id="path56"
             inkscape:connector-curvature="0"
             style="fill:#ff3b00;fill-opacity:1" />
          <path
             d="m 40.015625,48.128906 c -4.421875,0 -8,-3.578125 -8,-8 C 32.015625,18 50.015625,0 72.144531,0 c 4.421875,0 8,3.574219 8,8 0,4.425781 -3.578125,8 -8,8 -13.304687,0 -24.128906,10.824219 -24.128906,24.128906 0,4.421875 -3.574219,8 -8,8 z m 0,0"
             id="path60"
             inkscape:connector-curvature="0"
             style="fill:#ff3b00;fill-opacity:1" />
          <path
             d="M 328,240.23828 H 8 c -4.425781,0 -8,-3.57422 -8,-8 0,-4.42187 3.574219,-8 8,-8 h 320 c 4.42578,0 8,3.57813 8,8 0,4.42578 -3.57422,8 -8,8 z m 0,0"
             id="path12"
             inkscape:connector-curvature="0"
             style="fill:#ff3b00;fill-opacity:1" />
          <path
             d="M 328,208.23828 H 8 c -4.425781,0 -8,-3.57422 -8,-8 0,-4.42187 3.574219,-8 8,-8 h 320 c 4.42578,0 8,3.57813 8,8 0,4.42578 -3.57422,8 -8,8 z m 0,0"
             id="path16"
             inkscape:connector-curvature="0"
             style="fill:#ff3b00;fill-opacity:1" />
          <path
             d="m 8,336.23828 c -4.425781,0 -8,-3.57422 -8,-8 v -48 c 0,-4.42187 3.574219,-8 8,-8 4.425781,0 8,3.57813 8,8 v 48 c 0,4.41797 -3.574219,8 -8,8 z m 0,0"
             id="path18"
             inkscape:connector-curvature="0"
             style="fill:#ff3b00;fill-opacity:1" />
          <path
             d="m 400,360.23828 c -17.64844,0 -32,-14.35156 -32,-32 0,-17.64453 14.35156,-32 32,-32 17.64844,0 32,14.35547 32,32 0,17.64844 -14.35156,32 -32,32 z m 0,-48 c -8.82422,0 -16,7.17578 -16,16 0,8.82422 7.17578,16 16,16 8.82422,0 16,-7.17578 16,-16 0,-8.82422 -7.17578,-16 -16,-16 z m 0,0"
             id="path24"
             inkscape:connector-curvature="0"
             style="fill:#ff3b00;fill-opacity:1" />
          <path
             d="m 400,392.23828 c -35.28906,0 -64,-28.71094 -64,-64 0,-35.28516 28.71094,-64 64,-64 35.28906,0 64,28.71484 64,64 0,35.28906 -28.71094,64 -64,64 z m 0,-112 c -26.47266,0 -48,21.53125 -48,48 0,26.47266 21.52734,48 48,48 26.47266,0 48,-21.52734 48,-48 0,-26.46875 -21.52734,-48 -48,-48 z m 0,0"
             id="path26"
             inkscape:connector-curvature="0"
             style="fill:#ff3b00;fill-opacity:1" />
          <path
             d="m 104,360.23828 c -17.648438,0 -32,-14.35156 -32,-32 0,-17.64453 14.351562,-32 32,-32 17.64844,0 32,14.35547 32,32 0,17.64844 -14.35156,32 -32,32 z m 0,-48 c -8.824219,0 -16,7.17578 -16,16 0,8.82422 7.175781,16 16,16 8.82422,0 16,-7.17578 16,-16 0,-8.82422 -7.17578,-16 -16,-16 z m 0,0"
             id="path28"
             inkscape:connector-curvature="0"
             style="fill:#ff3b00;fill-opacity:1" />
          <path
             d="m 104,392.23828 c -35.289062,0 -64,-28.71094 -64,-64 0,-35.28516 28.710938,-64 64,-64 35.28906,0 64,28.71484 64,64 0,35.28906 -28.71094,64 -64,64 z m 0,-112 c -26.472656,0 -48,21.53125 -48,48 0,26.47266 21.527344,48 48,48 26.47266,0 48,-21.52734 48,-48 0,-26.46875 -21.52734,-48 -48,-48 z m 0,0"
             id="path30"
             inkscape:connector-curvature="0"
             style="fill:#ff3b00;fill-opacity:1" />
          <path
             d="m 352,184.23828 c -4.42578,0 -8,-3.57422 -8,-8 v -64 c 0,-4.42187 3.57422,-8 8,-8 4.42578,0 8,3.57813 8,8 v 64 c 0,4.41797 -3.57422,8 -8,8 z m 0,0"
             id="path36"
             inkscape:connector-curvature="0"
             style="fill:#ff3b00;fill-opacity:1" />
          <path
             d="m 384,184.23828 c -4.42578,0 -8,-3.57422 -8,-8 v -64.01562 c 0,-4.42188 3.57422,-8 8,-8 4.42578,0 8,3.57812 8,8 v 64.01562 c 0,4.41797 -3.57422,8 -8,8 z m 0,0"
             id="path42"
             inkscape:connector-curvature="0"
             style="fill:#ff3b00;fill-opacity:1" />
          <path
             d="m 360,232.23828 h -8 c -4.42578,0 -8,-3.57422 -8,-8 0,-4.42187 3.57422,-8 8,-8 h 8 c 4.42578,0 8,3.57813 8,8 0,4.42578 -3.57422,8 -8,8 z m 0,0"
             id="path44"
             inkscape:connector-curvature="0"
             style="fill:#ff3b00;fill-opacity:1" />
          <path
             d="m 8.015625,168.14453 c -4.421875,0 -8,-3.57812 -8,-8 V 88.121094 c 0,-4.425782 3.578125,-8 8,-8 4.425781,0 8,3.574218 8,8 v 72.023436 c 0,4.42188 -3.574219,8 -8,8 z m 0,0"
             id="path50"
             inkscape:connector-curvature="0"
             style="fill:#ff3b00;fill-opacity:1" />
          <path
             d="M 312.07812,184.14453 H 24.015625 c -4.421875,0 -8,-3.57812 -8,-8 0,-4.42578 3.578125,-8 8,-8 H 312.07812 c 4.42579,0 8,3.57422 8,8 0,4.42188 -3.57421,8 -8,8 z m 0,0"
             id="path52"
             inkscape:connector-curvature="0"
             style="fill:#ff3b00;fill-opacity:1" />
          <path
             d="m 328.07812,168.14453 c -4.42187,0 -8,-3.57812 -8,-8 V 88.121094 c 0,-4.425782 3.57813,-8 8,-8 4.42579,0 8,3.574218 8,8 v 72.023436 c 0,4.42188 -3.57421,8 -8,8 z m 0,0"
             id="path54"
             inkscape:connector-curvature="0"
             style="fill:#ff3b00;fill-opacity:1" />
          <path
             d="m 40.015625,208.16797 c -4.421875,0 -8,-3.57422 -8,-8 V 40.070312 c 0,-4.421874 3.578125,-8 8,-8 4.425781,0 8,3.578126 8,8 V 200.16797 c 0,4.42578 -3.574219,8 -8,8 z m 0,0"
             id="path58"
             inkscape:connector-curvature="0"
             style="fill:#ff3b00;fill-opacity:1" />
          <path
             d="M 296.07812,144.14453 H 40.6875 c -4.421875,0 -8,-3.57812 -8,-8 0,-4.42578 3.578125,-8 8,-8 h 255.39062 c 4.42579,0 8,3.57422 8,8 0,4.42188 -3.57421,8 -8,8 z m 0,0"
             id="path66"
             inkscape:connector-curvature="0"
             style="fill:#ff3b00;fill-opacity:1" />
          <path
             d="m 104.28125,96.222656 c -4.425781,0 -8.042969,-3.574218 -8.042969,-8 0,-4.421875 3.539063,-8 7.953129,-8 h 0.0898 c 4.41406,0 8,3.578125 8,8 0,4.425782 -3.58594,8 -8,8 z m 0,0"
             id="path80"
             inkscape:connector-curvature="0"
             style="fill:#ff3b00;fill-opacity:1" />
        </g>
        <path
           id="path82"
           d="m 200.28906,64.097656 c -4.42578,0 -8.04297,-3.578125 -8.04297,-8 0,-4.425781 3.53907,-8 7.95313,-8 h 0.0898 c 4.41406,0 8,3.574219 8,8 0,4.421875 -3.58594,8 -8,8 z m 0,0"
           inkscape:connector-curvature="0"
           style="fill:#ff3b00;fill-opacity:1" />
        <path
           id="path84"
           d="m 136.28906,64.097656 c -4.42578,0 -8.04297,-3.578125 -8.04297,-8 0,-4.425781 3.53907,-8 7.95313,-8 h 0.0898 c 4.41406,0 8,3.574219 8,8 0,4.421875 -3.58594,8 -8,8 z m 0,0"
           inkscape:connector-curvature="0"
           style="fill:#ff3b00;fill-opacity:1" />
      </g>
    </g>
  </g>
</svg>
