<?xml version="1.0" encoding="iso-8859-1"?>
<!-- Generator: Adobe Illustrator 18.1.1, SVG Export Plug-In . SVG Version: 6.00 Build 0)  -->
<svg version="1.1" id="Capa_1" xmlns="http://www.w3.org/2000/svg" xmlns:xlink="http://www.w3.org/1999/xlink" x="0px" y="0px"
	 viewBox="0 0 41.754 41.754" style="enable-background:new 0 0 41.754 41.754;" xml:space="preserve">
<g>
	<path d="M32.571,24.802c-1.952,0-3.539,1.584-3.539,3.539c0,1.953,1.587,3.537,3.539,3.537c1.953,0,3.535-1.584,3.535-3.537
		S34.524,24.802,32.571,24.802z M32.571,29.895c-0.856,0-1.553-0.697-1.553-1.554c0-0.854,0.696-1.551,1.553-1.551
		c0.854,0,1.552,0.694,1.552,1.551C34.123,29.195,33.425,29.895,32.571,29.895z M1.942,27.052L1.942,27.052L1.942,27.052
		L1.942,27.052z M0,27.052h1.942c-0.056,0.25-0.091,0.509-0.091,0.771c0,0.222,0.025,0.437,0.065,0.647H0V27.052z M11.518,27.05
		h1.479v0.002v1.418h-1.461c0.028-0.213,0.049-0.428,0.049-0.647C11.585,27.559,11.559,27.302,11.518,27.05z M28.244,27.82
		c-0.033,0.215-0.054,0.428-0.054,0.648c0,0.133,0.006,0.26,0.019,0.391H13.391V27.82C13.391,27.82,28.244,27.82,28.244,27.82z
		 M13.689,9.615l-0.001,3.483c-0.103,0-0.197,0-0.297,0v13.464v0.963h14.903c0.434-1.986,2.207-3.482,4.324-3.482
		c1.94,0,3.592,1.26,4.188,3.002l0.174,0.111h3.637v-3.98h1.137V9.615H13.689z M39.619,25.377h-0.552v-2.203h0.552
		C39.619,23.174,39.619,25.377,39.619,25.377z M37.026,27.45h3.985v1.038h-3.948c0.01-0.129,0.019-0.258,0.019-0.391
		C37.082,27.877,37.062,27.664,37.026,27.45z M0.129,19.48v1.552v5.632H0.13h2.157c0.52-2.046,2.372-3.562,4.574-3.562
		c2.206,0,4.059,1.519,4.574,3.562h1.588v-13.59h-9.97L0.129,19.48z M11.934,14.107v3.366H8.085l-2.848,2.395H1.432l2.125-5.761
		H11.934z M6.875,24.546c-2.097,0-3.795,1.699-3.795,3.795c0,2.099,1.697,3.798,3.795,3.798c2.096,0,3.796-1.699,3.796-3.798
		C10.669,26.244,8.969,24.546,6.875,24.546z M6.874,30.005c-0.917,0-1.665-0.748-1.665-1.664c0-0.918,0.747-1.664,1.665-1.664
		c0.92,0,1.665,0.746,1.665,1.664S7.793,30.005,6.874,30.005z"/>
</g>
<g>
</g>
<g>
</g>
<g>
</g>
<g>
</g>
<g>
</g>
<g>
</g>
<g>
</g>
<g>
</g>
<g>
</g>
<g>
</g>
<g>
</g>
<g>
</g>
<g>
</g>
<g>
</g>
<g>
</g>
</svg>
