<?xml version="1.0" encoding="UTF-8" standalone="no"?>
<!-- Generator: Adobe Illustrator 16.0.0, SVG Export Plug-In . SVG Version: 6.00 Build 0)  -->

<svg
   xmlns:dc="http://purl.org/dc/elements/1.1/"
   xmlns:cc="http://creativecommons.org/ns#"
   xmlns:rdf="http://www.w3.org/1999/02/22-rdf-syntax-ns#"
   xmlns:svg="http://www.w3.org/2000/svg"
   xmlns="http://www.w3.org/2000/svg"
   xmlns:sodipodi="http://sodipodi.sourceforge.net/DTD/sodipodi-0.dtd"
   xmlns:inkscape="http://www.inkscape.org/namespaces/inkscape"
   version="1.1"
   id="Capa_1"
   x="0px"
   y="0px"
   width="300"
   height="120"
   viewBox="0 0 300 120"
   enable-background="new 0 0 512 512"
   xml:space="preserve"
   sodipodi:docname="van.svg"
   inkscape:version="0.92.4 (5da689c313, 2019-01-14)"><metadata
   id="metadata9"><rdf:RDF><cc:Work
       rdf:about=""><dc:format>image/svg+xml</dc:format><dc:type
         rdf:resource="http://purl.org/dc/dcmitype/StillImage" /><dc:title /></cc:Work></rdf:RDF></metadata><defs
   id="defs7" /><sodipodi:namedview
   pagecolor="#ffffff"
   bordercolor="#666666"
   borderopacity="1"
   objecttolerance="10"
   gridtolerance="10"
   guidetolerance="10"
   inkscape:pageopacity="0"
   inkscape:pageshadow="2"
   inkscape:window-width="1366"
   inkscape:window-height="705"
   id="namedview5"
   showgrid="false"
   inkscape:zoom="0.4609375"
   inkscape:cx="256"
   inkscape:cy="256"
   inkscape:window-x="-8"
   inkscape:window-y="-8"
   inkscape:window-maximized="1"
   inkscape:current-layer="Capa_1" />
<path
   d="m 126.31652,15.540868 c -18.07266,0 -52.55928,35.26315 -52.55928,35.26315 0,0 -19.738995,2.62571 -32.655272,8.76517 -12.92064,6.14896 -7.75009,30.72752 -7.75009,30.72752 h 19.315327 c 0,0.0652 -0.0125,0.1265 -0.0125,0.19169 0,10.485992 10.69341,18.992562 23.940775,18.992562 13.21905,0 23.92989,-8.51132 23.92989,-18.992562 0,-0.0652 -0.0114,-0.1265 -0.0114,-0.19169 h 94.67347 c 0,0.0652 -0.0114,0.1265 -0.0114,0.19169 0,10.485992 10.69504,18.992562 23.94404,18.992562 13.20817,0 23.92663,-8.51132 23.92663,-18.992562 0,-0.0652 -0.0114,-0.1265 -0.0114,-0.19169 h 30.53261 v -45.06703 -29.6927 c -10.35361,0.004 -129.16825,0.004 -147.25127,0.004 z m -84.009992,56.52137 c -1.155,0 -2.28659,-0.18823 -3.39312,-0.47618 1.26772,-4.84431 3.61638,-8.13616 7.02094,-9.7633 1.67178,-0.79264 3.59569,-1.5598 5.733057,-2.32869 0.9998,1.28825 1.55144,2.72198 1.55144,4.20148 -5.5e-4,4.61593 -4.895537,8.36669 -10.912317,8.36669 z m 34.288382,26.75399 c -5.804395,0 -10.498445,-3.74083 -10.498445,-8.32309 0,-4.57836 4.724,-8.30625 10.498445,-8.30625 5.78208,0 10.47832,3.74127 10.47832,8.30625 0.006,4.58226 -4.69624,8.32309 -10.47832,8.32309 z m 80.39635,-54.12491 H 97.832527 c 0,0 21.061723,-21.19907 31.082613,-21.19907 10.03286,0 28.07612,0 28.07612,0 z m 62.12601,54.12491 c -5.80168,0 -10.49846,-3.73608 -10.49846,-8.32309 0,-4.57448 4.71856,-8.30625 10.49846,-8.30625 5.77718,0 10.47396,3.74127 10.47396,8.30625 0.009,4.58571 -4.70441,8.32309 -10.47396,8.32309 z m 45.24102,-19.67381 h -8.97752 v -33.91145 h 8.97752 z"
   id="path2"
   inkscape:connector-curvature="0"
   style="stroke-width:0.48486474;fill:#000000;fill-opacity:1" />
</svg>