<?xml version="1.0" encoding="UTF-8" standalone="no"?>
<!-- Generator: Adobe Illustrator 16.0.0, SVG Export Plug-In . SVG Version: 6.00 Build 0)  -->

<svg
   xmlns:dc="http://purl.org/dc/elements/1.1/"
   xmlns:cc="http://creativecommons.org/ns#"
   xmlns:rdf="http://www.w3.org/1999/02/22-rdf-syntax-ns#"
   xmlns:svg="http://www.w3.org/2000/svg"
   xmlns="http://www.w3.org/2000/svg"
   xmlns:sodipodi="http://sodipodi.sourceforge.net/DTD/sodipodi-0.dtd"
   xmlns:inkscape="http://www.inkscape.org/namespaces/inkscape"
   version="1.1"
   id="Capa_1"
   x="0px"
   y="0px"
   width="70"
   height="30"
   viewBox="0 0 70 30"
   enable-background="new 0 0 512 512"
   xml:space="preserve"
   sodipodi:docname="van_small.svg"
   inkscape:version="0.92.4 (5da689c313, 2019-01-14)"><metadata
   id="metadata9"><rdf:RDF><cc:Work
       rdf:about=""><dc:format>image/svg+xml</dc:format><dc:type
         rdf:resource="http://purl.org/dc/dcmitype/StillImage" /><dc:title></dc:title></cc:Work></rdf:RDF></metadata><defs
   id="defs7" /><sodipodi:namedview
   pagecolor="#ffffff"
   bordercolor="#666666"
   borderopacity="1"
   objecttolerance="10"
   gridtolerance="10"
   guidetolerance="10"
   inkscape:pageopacity="0"
   inkscape:pageshadow="2"
   inkscape:window-width="1366"
   inkscape:window-height="705"
   id="namedview5"
   showgrid="false"
   inkscape:zoom="1"
   inkscape:cx="16.630066"
   inkscape:cy="126.03077"
   inkscape:window-x="-8"
   inkscape:window-y="-8"
   inkscape:window-maximized="1"
   inkscape:current-layer="Capa_1" />
<path
   d="m 30.70407,8.842755 c -2.26533,0 -6.58809,5.984789 -6.58809,5.984789 0,0 -2.4742,0.44563 -4.0932,1.487606 -1.61955,1.043589 -0.97144,5.215009 -0.97144,5.215009 h 2.42109 c 0,0.01109 -0.002,0.02147 -0.002,0.03256 0,1.779658 1.34037,3.223377 3.00087,3.223377 1.65696,0 2.99952,-1.444522 2.99952,-3.223377 0,-0.01109 -0.002,-0.02147 -0.002,-0.03256 h 11.86693 c 0,0.01109 -0.002,0.02147 -0.002,0.03256 0,1.779658 1.34058,3.223377 3.00129,3.223377 1.65559,0 2.9991,-1.444522 2.9991,-3.223377 0,-0.01109 -10e-4,-0.02147 -10e-4,-0.03256 h 3.82713 V 13.881478 8.842095 C 47.86249,8.84276 32.96956,8.84276 30.70293,8.84276 Z m -10.5303,9.59269 c -0.14478,0 -0.28662,-0.03195 -0.42532,-0.08082 0.1589,-0.822167 0.4533,-1.380852 0.88005,-1.657007 0.20955,-0.134526 0.4507,-0.264726 0.71861,-0.395221 0.12532,0.218639 0.19447,0.461969 0.19447,0.713067 -7e-5,0.783406 -0.61364,1.419977 -1.36781,1.419977 z m 4.2979,4.540633 c -0.72756,0 -1.31593,-0.634889 -1.31593,-1.412579 0,-0.77703 0.59213,-1.40972 1.31593,-1.40972 0.72476,0 1.31342,0.634962 1.31342,1.40972 7.5e-4,0.77769 -0.58866,1.412579 -1.31342,1.412579 z m 10.07735,-9.185969 h -7.4153 c 0,0 2.64,-3.597862 3.89608,-3.597862 1.25757,0 3.51922,0 3.51922,0 z m 7.78724,9.185969 c -0.72721,0 -1.31594,-0.634082 -1.31594,-1.412579 0,-0.776373 0.59146,-1.40972 1.31594,-1.40972 0.72415,0 1.31287,0.634962 1.31287,1.40972 10e-4,0.778276 -0.58968,1.412579 -1.31287,1.412579 z m 5.67078,-3.339 h -1.1253 v -5.755381 h 1.1253 z"
   id="path2"
   inkscape:connector-curvature="0"
   style="fill:#ff3b00;fill-opacity:1;stroke-width:0.07071956" />
</svg>