<?xml version="1.0" encoding="UTF-8" standalone="no"?>
<!-- Generator: Adobe Illustrator 19.0.0, SVG Export Plug-In . SVG Version: 6.00 Build 0)  -->

<svg
   xmlns:dc="http://purl.org/dc/elements/1.1/"
   xmlns:cc="http://creativecommons.org/ns#"
   xmlns:rdf="http://www.w3.org/1999/02/22-rdf-syntax-ns#"
   xmlns:svg="http://www.w3.org/2000/svg"
   xmlns="http://www.w3.org/2000/svg"
   xmlns:sodipodi="http://sodipodi.sourceforge.net/DTD/sodipodi-0.dtd"
   xmlns:inkscape="http://www.inkscape.org/namespaces/inkscape"
   version="1.1"
   id="Capa_1"
   x="0px"
   y="0px"
   viewBox="0 0 469.341 469.341"
   style="enable-background:new 0 0 469.341 469.341;"
   xml:space="preserve"
   sodipodi:docname="wallet_confirm.svg"
   inkscape:version="0.92.4 (5da689c313, 2019-01-14)"><metadata
   id="metadata47"><rdf:RDF><cc:Work
       rdf:about=""><dc:format>image/svg+xml</dc:format><dc:type
         rdf:resource="http://purl.org/dc/dcmitype/StillImage" /><dc:title></dc:title></cc:Work></rdf:RDF></metadata><defs
   id="defs45" /><sodipodi:namedview
   pagecolor="#ffffff"
   bordercolor="#666666"
   borderopacity="1"
   objecttolerance="10"
   gridtolerance="10"
   guidetolerance="10"
   inkscape:pageopacity="0"
   inkscape:pageshadow="2"
   inkscape:window-width="1366"
   inkscape:window-height="705"
   id="namedview43"
   showgrid="false"
   inkscape:zoom="0.50283269"
   inkscape:cx="234.6705"
   inkscape:cy="234.6705"
   inkscape:window-x="-8"
   inkscape:window-y="-8"
   inkscape:window-maximized="1"
   inkscape:current-layer="Capa_1" />
<g
   id="g10"
   style="fill:#6e9e00;fill-opacity:1">
	<g
   id="g8"
   style="fill:#6e9e00;fill-opacity:1">
		<g
   id="g6"
   style="fill:#6e9e00;fill-opacity:1">
			<path
   d="M437.337,384.007H362.67c-47.052,0-85.333-38.281-85.333-85.333c0-47.052,38.281-85.333,85.333-85.333h74.667     c5.896,0,10.667-4.771,10.667-10.667v-32c0-22.368-17.35-40.559-39.271-42.323l-61.26-107     c-5.677-9.896-14.844-16.969-25.813-19.906c-10.917-2.917-22.333-1.385-32.104,4.302L79.553,128.007H42.67     c-23.531,0-42.667,19.135-42.667,42.667v256c0,23.531,19.135,42.667,42.667,42.667h362.667c23.531,0,42.667-19.135,42.667-42.667     v-32C448.004,388.778,443.233,384.007,437.337,384.007z M360.702,87.411l23.242,40.596h-92.971L360.702,87.411z M121.953,128.007     L300.295,24.184c4.823-2.823,10.458-3.573,15.844-2.135c5.448,1.458,9.99,4.979,12.813,9.906l0.022,0.039l-164.91,96.013H121.953     z"
   id="path2"
   style="fill:#6e9e00;fill-opacity:1" />
			<path
   d="M437.337,234.674H362.67c-35.292,0-64,28.708-64,64c0,35.292,28.708,64,64,64h74.667c17.646,0,32-14.354,32-32v-64     C469.337,249.028,454.983,234.674,437.337,234.674z M362.67,320.007c-11.76,0-21.333-9.573-21.333-21.333     c0-11.76,9.573-21.333,21.333-21.333c11.76,0,21.333,9.573,21.333,21.333C384.004,310.434,374.431,320.007,362.67,320.007z"
   id="path4"
   style="fill:#6e9e00;fill-opacity:1" />
		</g>
	</g>
</g>
<g
   id="g12">
</g>
<g
   id="g14">
</g>
<g
   id="g16">
</g>
<g
   id="g18">
</g>
<g
   id="g20">
</g>
<g
   id="g22">
</g>
<g
   id="g24">
</g>
<g
   id="g26">
</g>
<g
   id="g28">
</g>
<g
   id="g30">
</g>
<g
   id="g32">
</g>
<g
   id="g34">
</g>
<g
   id="g36">
</g>
<g
   id="g38">
</g>
<g
   id="g40">
</g>
</svg>